<svg width="40" height="40" viewBox="0 0 40 40" fill="none" xmlns="http://www.w3.org/2000/svg">
<path d="M0 12C0 5.37258 5.37258 0 12 0H28C34.6274 0 40 5.37258 40 12V28C40 34.6274 34.6274 40 28 40H12C5.37258 40 0 34.6274 0 28V12Z" fill="url(#paint0_linear_10_408)"/>
<path d="M17.937 23.5C17.8477 23.1539 17.6673 22.8381 17.4146 22.5854C17.1619 22.3327 16.8461 22.1523 16.5 22.063L10.365 20.481C10.2603 20.4513 10.1682 20.3883 10.1026 20.3014C10.037 20.2146 10.0015 20.1088 10.0015 20C10.0015 19.8912 10.037 19.7854 10.1026 19.6986C10.1682 19.6118 10.2603 19.5487 10.365 19.519L16.5 17.936C16.846 17.8468 17.1617 17.6666 17.4144 17.414C17.6671 17.1615 17.8476 16.8459 17.937 16.5L19.519 10.365C19.5484 10.2599 19.6114 10.1673 19.6983 10.1014C19.7853 10.0355 19.8914 9.99976 20.0005 9.99976C20.1096 9.99976 20.2157 10.0355 20.3027 10.1014C20.3896 10.1673 20.4526 10.2599 20.482 10.365L22.063 16.5C22.1523 16.8461 22.3327 17.1619 22.5854 17.4146C22.8381 17.6673 23.1539 17.8477 23.5 17.937L29.635 19.518C29.7405 19.5471 29.8335 19.61 29.8998 19.6971C29.9661 19.7841 30.0021 19.8906 30.0021 20C30.0021 20.1094 29.9661 20.2159 29.8998 20.3029C29.8335 20.39 29.7405 20.4529 29.635 20.482L23.5 22.063C23.1539 22.1523 22.8381 22.3327 22.5854 22.5854C22.3327 22.8381 22.1523 23.1539 22.063 23.5L20.481 29.635C20.4516 29.7401 20.3886 29.8327 20.3017 29.8986C20.2147 29.9646 20.1086 30.0003 19.9995 30.0003C19.8904 30.0003 19.7843 29.9646 19.6973 29.8986C19.6104 29.8327 19.5474 29.7401 19.518 29.635L17.937 23.5Z" stroke="white" stroke-width="2" stroke-linecap="round" stroke-linejoin="round"/>
<path d="M28 11V15" stroke="white" stroke-width="2" stroke-linecap="round" stroke-linejoin="round"/>
<path d="M30 13H26" stroke="white" stroke-width="2" stroke-linecap="round" stroke-linejoin="round"/>
<path d="M12 25V27" stroke="white" stroke-width="2" stroke-linecap="round" stroke-linejoin="round"/>
<path d="M13 26H11" stroke="white" stroke-width="2" stroke-linecap="round" stroke-linejoin="round"/>
<defs>
<linearGradient id="paint0_linear_10_408" x1="-4.14214" y1="24.1421" x2="24.1421" y2="52.4264" gradientUnits="userSpaceOnUse">
<stop stop-color="#6C63FF"/>
<stop offset="1" stop-color="#2563EB"/>
</linearGradient>
</defs>
</svg>
