<svg width="20" height="20" viewBox="0 0 20 20" fill="none" xmlns="http://www.w3.org/2000/svg">
<path d="M13.3334 10.8333L17.6859 13.735C17.7486 13.7768 17.8215 13.8007 17.8968 13.8043C17.9721 13.8079 18.0469 13.791 18.1134 13.7554C18.1798 13.7199 18.2354 13.6669 18.2741 13.6023C18.3129 13.5376 18.3333 13.4637 18.3334 13.3883V6.55833C18.3334 6.48502 18.3141 6.41299 18.2774 6.34954C18.2406 6.28608 18.1878 6.23343 18.1243 6.19691C18.0607 6.16039 17.9886 6.14129 17.9153 6.14154C17.842 6.14179 17.77 6.16138 17.7067 6.19833L13.3334 8.75" stroke="white" stroke-width="2" stroke-linecap="round" stroke-linejoin="round"/>
<path d="M11.6666 5H3.33329C2.41282 5 1.66663 5.74619 1.66663 6.66667V13.3333C1.66663 14.2538 2.41282 15 3.33329 15H11.6666C12.5871 15 13.3333 14.2538 13.3333 13.3333V6.66667C13.3333 5.74619 12.5871 5 11.6666 5Z" stroke="white" stroke-width="2" stroke-linecap="round" stroke-linejoin="round"/>
</svg>
